<svg height='300px' width='300px'  fill="#000000" xmlns="http://www.w3.org/2000/svg" xmlns:xlink="http://www.w3.org/1999/xlink" xmlns:sketch="http://www.bohemiancoding.com/sketch/ns" viewBox="0 0 100 100" version="1.1" x="0px" y="0px"><title>head-question</title><desc>Created with Sketch.</desc><g stroke="none" stroke-width="1" fill="none" fill-rule="evenodd" sketch:type="MSPage"><path d="M52.9942069,58.5977551 L52.6700232,58.5977551 C50.0829824,58.5977551 47.9863498,60.6953061 47.9863498,63.2823469 C47.9863498,65.8693878 50.0829824,67.9660204 52.6700232,67.9660204 L52.9942069,67.9660204 C55.5812477,67.9660204 57.6787988,65.8693878 57.6787988,63.2823469 C57.6787988,60.6953061 55.5812477,58.5977551 52.9942069,58.5977551 L52.9942069,58.5977551 Z M64.1780845,23.2002041 C58.2628804,18.9270408 48.8358396,18.1978571 42.6056355,22.162449 C40.0415539,23.7943878 38.2387988,26.1481633 37.1973702,29.2237755 C36.1917579,32.1919388 38.4840028,35.2583673 41.6174722,35.2583673 C43.5690028,35.2583673 45.3947171,34.0911224 46.0348192,32.2470408 C46.2910436,31.5105102 46.6427783,30.785 47.0900232,30.0723469 C48.8597171,27.2612245 53.384513,26.672551 56.0872681,28.3586735 C59.4273702,30.4433673 59.9508396,34.9047959 57.8137988,38.0143878 C57.3380845,38.7059184 56.7117579,39.3432653 55.9384926,39.9264286 L53.5782885,41.7741837 C51.249309,43.5897959 49.8065539,45.1941837 49.2454314,46.5882653 C48.991962,47.2219388 48.7825743,48.0888776 48.6172681,49.19 C48.2251253,51.8 50.2427783,54.157449 52.8821661,54.157449 L53.0915539,54.157449 C55.1385947,54.157449 56.8430845,52.7036735 57.3151253,50.7117347 C57.3472681,50.5758163 57.3821661,50.4490816 57.4189008,50.332449 C57.8303294,49.0357143 58.65686,47.9006122 59.909513,46.9280612 L62.2008396,45.1455102 C64.5289008,43.329898 66.1011457,41.8393878 66.9221661,40.6721429 C68.3217579,38.7490816 69.024309,36.382449 69.024309,33.5731633 C69.024309,28.9914286 67.4089008,25.5337755 64.1780845,23.2002041 L64.1780845,23.2002041 Z M80.3734926,59.837551 C85.0984926,53.492551 90.9797171,45.5955102 87.7470641,30.2266327 C86.0315539,22.0641837 81.4663498,15.8569388 74.1791049,11.7766327 C66.8881865,7.69357143 58.8102273,6.83673469 53.3174722,6.83673469 C49.2435947,6.83673469 45.2615539,7.31061224 41.8029824,8.20785714 C33.6230845,10.3283673 26.2054314,16.080102 21.9589008,23.595102 C18.6821661,29.3945918 17.7647171,35.5816327 19.3773702,41.0156122 C19.5004314,41.432551 19.4260436,41.8963265 19.1734926,42.2866327 C18.7234926,42.9836735 18.0457375,43.9295918 17.2632885,45.0242857 C15.1547171,47.9704082 12.5309416,51.637449 11.5684926,54.2658163 C11.18186,55.3228571 11.2580845,56.5011224 11.7778804,57.4993878 C12.2976763,58.4967347 13.2197171,59.2341837 14.2886967,59.5170408 C14.5054314,59.5822449 15.5340028,59.9753061 16.0877783,60.1865306 C16.6654314,60.4069388 17.1659416,60.5952041 17.2981865,60.637449 C18.7326763,61.0938776 18.6536967,67.0577551 18.60686,70.6210204 C18.5940028,71.5366327 18.5820641,72.4605102 18.5820641,73.372449 C18.5820641,78.0662245 21.6310436,80.8690816 26.7353294,80.8690816 C28.184513,80.8690816 29.4748192,80.655102 30.3022681,80.475102 C30.991962,80.3254082 31.6752273,80.2455102 32.2785947,80.2455102 C34.7306355,80.2455102 35.7307375,81.3594898 35.7307375,84.0897959 C35.7307375,84.9172449 35.7546151,85.6647959 35.7996151,86.3140816 C35.9382885,88.2876531 37.2267579,90.0252041 39.0836967,90.7415306 C40.5585947,91.3090816 46.0357375,93.1632653 54.5737988,93.1632653 L54.5747171,93.1632653 C61.5139008,93.1632653 68.4751253,91.9326531 75.2627783,89.5063265 C76.216962,89.1646939 76.981962,88.4281633 77.359411,87.485 C77.7386967,86.5381633 77.6955334,85.4737755 77.2381865,84.5627551 C76.0332885,82.1676531 73.2129824,76.5582653 75.1736967,68.9312245 C76.0029824,65.7059184 78.0289008,62.9866327 80.3734926,59.837551 L80.3734926,59.837551 Z M73.8953294,86.0936735 C67.5466559,88.3473469 61.0473702,89.4897959 54.5737988,89.4897959 C48.2930845,89.4897959 43.1364518,88.3657143 40.404309,87.3141837 C39.8725743,87.1084694 39.5033906,86.6143878 39.4639008,86.0578571 C39.424411,85.4939796 39.4042069,84.8318367 39.4042069,84.0897959 C39.4042069,79.3822449 36.7409416,76.5720408 32.2785947,76.5720408 C31.404309,76.5720408 30.4767579,76.6776531 29.5234926,76.8852041 C28.9890028,77.0009184 27.9172681,77.1956122 26.7353294,77.1956122 C22.7881865,77.1956122 22.2555334,75.262449 22.2555334,73.372449 C22.2555334,72.4761224 22.2674722,71.5696939 22.2803294,70.6687755 C22.3629824,64.3696939 22.4410436,58.4195918 18.4176763,57.1384694 C18.2780845,57.0916327 17.8684926,56.9345918 17.3973702,56.7545918 C16.051962,56.2403061 15.5239008,56.0446939 15.2483906,55.9712245 C15.1299212,55.94 15.0665539,55.8619388 15.0353294,55.8013265 C15.0041049,55.7407143 14.9756355,55.6442857 15.0178804,55.5285714 C15.8085947,53.3694898 18.3763498,49.7823469 20.2507375,47.1622449 C21.0607375,46.029898 21.7605334,45.0509184 22.2582885,44.2813265 C23.0949212,42.9873469 23.3272681,41.4160204 22.8983906,39.9695918 C21.5722681,35.499898 22.3740028,30.3267347 25.1575743,25.402449 C28.8677783,18.8370408 35.5984926,13.6106122 42.7241049,11.7637755 C45.886962,10.9436735 49.549411,10.5102041 53.3174722,10.5102041 C59.5412477,10.5102041 80.1585947,11.9869388 84.1525743,30.982449 C87.0435947,44.7304082 82.1551253,51.294898 77.4273702,57.6435714 C74.9578804,60.9597959 72.6252273,64.0914286 71.6150232,68.0165306 C69.3448192,76.8521429 72.4764518,83.2678571 73.8953294,86.0936735 L73.8953294,86.0936735 Z" fill="#000000" sketch:type="MSShapeGroup"></path></g></svg>